<svg width="3174" height="745" viewBox="0 0 3174 745" fill="none" xmlns="http://www.w3.org/2000/svg">
<g clip-path="url(#clip0_421_688)">
<path d="M3174 26.693C3174 6.46601 3169.85 0 3148.05 0C2107.16 0.607915 1066.26 0.607915 25.3714 0C5.47227 0 0 5.38834 0 25.2837C0.773856 256.513 0.773856 487.714 0 718.887C0 741.104 7.21345 744.585 27.1126 744.503C275.023 743.839 522.961 743.839 770.927 744.503H1587.37C2107.51 744.503 2627.6 744.668 3147.63 745C3168.86 745 3174.08 739.612 3174 718.639C3173.28 487.852 3173.28 257.203 3174 26.693ZM695.144 717.892C587.357 717.146 479.57 717.892 371.783 717.892C263.996 717.892 156.208 717.892 48.4213 717.892C31.5899 717.975 24.8739 714.991 24.8739 695.593C25.7031 479.673 25.7031 263.669 24.8739 47.5832C24.8739 30.3405 29.7658 25.4495 46.9288 25.5324C263.166 26.0298 479.376 26.0298 695.559 25.5324C713.385 25.5324 717.199 31.6668 717.199 48.1635C716.701 264.194 716.701 480.198 717.199 696.173C717.448 713.831 712.058 717.975 695.144 717.892ZM1222.55 527.228C1185.53 558.203 1138.09 573.887 1089.89 571.081C926.72 571.993 848.533 415.897 912.625 290.141C950.102 216.363 1017.43 187.929 1098.1 189.089C1146.95 188.525 1194.17 206.576 1230.18 239.574C1240.63 249.19 1244.86 257.645 1230.18 266.93C1228.47 268.115 1226.86 269.446 1225.37 270.909C1214.1 280.94 1204.23 295.778 1191.05 299.757C1177.86 303.737 1168.66 285.002 1156.47 277.872C1105.15 247.864 1035.34 260.298 999.85 306.969C982.39 331.635 974.391 361.759 977.314 391.835C980.237 421.911 993.887 449.931 1015.77 470.775C1058.39 508.825 1132.93 508.162 1174.88 467.625C1186.57 456.268 1193.45 457.428 1203.07 467.625C1209.54 474.671 1216.92 481.054 1223.88 487.686C1244.94 507.664 1245.36 508.079 1222.55 527.062V527.228ZM1528.59 566.356C1518.22 565.693 1507.86 566.356 1497.49 566.356C1469.22 566.356 1469.22 566.356 1466.07 536.513C1419.97 575.723 1359.86 581.112 1313.18 551.932C1284.16 533.86 1273.71 507.001 1276.2 474.34C1278.6 443.75 1295.93 423.606 1322.96 411.172C1347.42 399.98 1374.04 400.146 1400.07 398.323C1413.17 397.411 1426.27 398.323 1439.46 398.323C1464.33 398.323 1468.56 390.779 1456.04 369.143C1452.12 362.16 1446.54 356.243 1439.81 351.908C1433.08 347.573 1425.38 344.952 1417.4 344.273C1385.89 340.957 1354.97 343.444 1327.77 361.433C1316.66 368.728 1312.35 365.164 1308.37 354.801C1305.96 349.107 1303.19 343.57 1300.08 338.222C1284.41 308.793 1284.24 308.296 1315.91 295.281C1368.07 273.893 1421.71 269.168 1475.44 288.235C1520.88 304.317 1542.77 340.377 1544.76 386.8C1546.99 441.263 1545.42 495.81 1546.16 550.357C1546.08 563.206 1540.61 566.936 1528.59 566.19V566.356ZM1795.07 347.341C1787.86 358.2 1773.35 350.574 1761.9 352.48C1745.92 354.367 1731.18 362.051 1720.49 374.075C1709.79 386.099 1703.88 401.628 1703.87 417.721C1702.12 459.75 1702.29 501.862 1703.04 543.808C1703.04 560.387 1699.31 568.014 1681.31 566.356C1665.5 565.278 1649.62 565.278 1633.8 566.356C1622.69 566.356 1619.71 562.211 1619.79 551.766C1620.12 466.326 1620.12 380.886 1619.79 295.447C1619.79 283.095 1624.68 279.862 1635.79 280.608C1646.9 281.354 1656.52 280.608 1666.8 280.608C1698.14 280.608 1698.14 280.608 1699.97 313.767C1721.29 292.74 1749.24 279.76 1779.07 277.043C1792.67 276.132 1798.55 280.111 1797.23 293.623C1796.73 299.094 1797.23 304.648 1797.23 310.202C1796.81 323.3 1801.79 337.144 1795.07 347.341ZM2162.96 378.51C2144.38 428.249 2090.41 461.408 2024.74 462.983C1999.87 463.646 1974.99 463.48 1950.12 462.983C1939.42 462.983 1935.52 466.713 1935.77 477.49C1936.27 502.359 1935.77 527.228 1935.77 552.097C1935.77 562.874 1932.13 566.77 1921.43 566.439C1903.52 565.776 1885.45 565.444 1867.62 566.439C1853.28 567.268 1850.29 561.133 1850.46 548.201C1850.95 492.411 1850.46 436.538 1850.46 380.665C1850.46 324.792 1850.46 269.002 1850.46 213.13C1850.46 203.182 1849.38 193.731 1864.55 194.146C1926.57 196.218 1988.92 190.25 2050.61 198.374C2143.47 210.477 2194.71 293.54 2162.96 378.51ZM2361.95 570.501C2271.82 570.584 2205.49 508.079 2205.49 423.606C2205.49 337.724 2269.58 277.126 2361.04 277.043C2452.49 276.961 2516.91 336.067 2517.08 422.612C2517.24 509.157 2451.99 570.335 2361.86 570.501H2361.95ZM2706.12 570.501C2615.5 569.257 2551.57 507.25 2552.23 421.285C2552.9 335.32 2618.56 276.463 2714.25 277.126C2801.39 277.79 2864.4 340.211 2863.49 425.181C2862.58 510.151 2796.08 571.993 2706.04 570.418L2706.12 570.501ZM2981.81 566.273C2961.99 564.615 2936.78 574.563 2923.77 562.46C2910.75 550.357 2919.46 524.658 2919.12 505.012C2918.46 459.501 2919.12 413.824 2919.12 368.479C2919.12 309.871 2919.54 251.179 2919.12 192.571C2919.12 178.478 2922.52 172.593 2937.45 173.67C2953.29 174.706 2969.19 174.706 2985.04 173.67C2997.39 173.007 3002.04 176.903 3001.62 190.25C3001.18 309.512 3001.18 428.829 3001.62 548.201C3001.46 563.04 2995.49 567.351 2981.72 566.19L2981.81 566.273Z" fill="#0082CD"/>
<path d="M2035.27 268.157C2023.84 265.463 2012.09 264.402 2000.36 265.005C1979.88 266 1953.6 256.711 1940.42 268.737C1927.23 280.764 1938.34 307.887 1936.02 324.642C1936.02 345.46 1936.02 362.713 1936.02 379.965C1936.02 387.596 1937.1 393.899 1946.88 393.568C1977.07 392.489 2007.66 397.217 2037.51 389.503C2069.43 381.209 2085.27 359.976 2084.69 328.042C2084.11 296.109 2067.36 276.202 2035.27 268.157Z" fill="#0082CD"/>
<path d="M2361.45 344.133C2318.17 344.133 2288.65 377.311 2288.82 424.672C2288.82 470.456 2319.25 502.141 2362.36 501.892C2405.48 501.643 2433.92 469.876 2433.59 422.847C2433.25 375.818 2403.65 344.133 2361.45 344.133Z" fill="#0082CD"/>
<path d="M2709.27 344.216C2666.99 343.47 2636.06 375.984 2635.48 421.52C2634.98 469.461 2664.08 501.809 2708.03 501.892C2750.48 501.892 2779.91 471.203 2780.66 425.999C2781.41 378.057 2752.72 344.963 2709.27 344.216Z" fill="#0082CD"/>
<path d="M1454.88 447.315C1430 447.315 1405.13 444.329 1381 449.969C1374.12 451.148 1367.87 454.695 1363.33 459.996C1358.79 465.297 1356.24 472.019 1356.13 479C1355.46 494.344 1364.42 503.883 1378.51 510.269C1386.27 513.039 1394.5 514.278 1402.73 513.919C1439.62 513.919 1466.32 489.036 1463.25 459.01C1462.59 453.204 1462.42 447.232 1454.88 447.315Z" fill="#0082CD"/>
<path d="M493.665 265.42C495.073 265.42 496.422 265.979 497.417 266.975C498.413 267.97 498.972 269.32 498.972 270.728V276.202C498.972 284.497 489.105 286.736 481.726 286.736L470.201 265.42H493.665ZM478.326 302.744C485.091 314.61 488.555 328.07 488.359 341.728C487.78 356.473 484.137 370.936 477.663 384.195V403.853C477.696 405.275 477.444 406.689 476.92 408.012C476.396 409.334 475.613 410.538 474.615 411.551C473.617 412.565 472.426 413.367 471.112 413.911C469.799 414.456 468.389 414.73 466.967 414.718H451.048C449.647 414.729 448.258 414.463 446.961 413.934C445.664 413.406 444.484 412.625 443.49 411.638C442.495 410.651 441.706 409.477 441.168 408.184C440.629 406.89 440.352 405.503 440.352 404.102V393.236H301.97V403.853C302.003 405.275 301.751 406.689 301.227 408.012C300.703 409.334 299.919 410.538 298.922 411.551C297.924 412.565 296.733 413.367 295.419 413.911C294.106 414.456 292.696 414.73 291.274 414.718H275.355C273.954 414.729 272.565 414.463 271.268 413.934C269.971 413.406 268.791 412.625 267.797 411.638C266.802 410.651 266.013 409.477 265.475 408.184C264.936 406.89 264.659 405.503 264.659 404.102V384.195C258.184 370.936 254.542 356.473 253.963 341.728C253.806 328.038 257.297 314.553 264.079 302.662C272.867 286.073 283.729 265.917 295.254 246.758C304.043 231.994 308.686 228.593 319.465 226.602C336.552 223.698 353.873 222.393 371.202 222.704C388.504 222.393 405.798 223.698 422.857 226.602C433.636 228.593 438.279 231.994 447.068 246.758C458.593 265.917 469.455 286.322 478.326 302.744ZM307.276 334.595C307.276 331.429 306.338 328.334 304.579 325.701C302.821 323.069 300.322 321.017 297.398 319.805C294.474 318.594 291.256 318.277 288.152 318.894C285.048 319.512 282.197 321.037 279.959 323.275C277.721 325.514 276.197 328.367 275.579 331.472C274.962 334.577 275.279 337.796 276.49 340.721C277.701 343.646 279.752 346.146 282.384 347.905C285.015 349.664 288.109 350.603 291.274 350.603C295.518 350.603 299.588 348.916 302.589 345.914C305.59 342.912 307.276 338.84 307.276 334.595ZM413.737 345.295C413.748 344.591 413.619 343.891 413.357 343.238C413.095 342.584 412.706 341.989 412.212 341.487C411.718 340.986 411.13 340.587 410.48 340.315C409.831 340.043 409.134 339.903 408.43 339.903H333.809C332.505 340.066 331.305 340.699 330.436 341.685C329.566 342.67 329.086 343.939 329.086 345.253C329.086 346.567 329.566 347.836 330.436 348.822C331.305 349.807 332.505 350.44 333.809 350.603H408.43C409.838 350.603 411.187 350.044 412.183 349.048C413.178 348.053 413.737 346.702 413.737 345.295ZM445.078 286.405C440.274 274.864 434.476 263.763 427.749 253.227C426.684 251.649 425.313 250.3 423.718 249.26C422.123 248.22 420.336 247.51 418.463 247.172C402.864 244.421 387.041 243.144 371.202 243.357C355.337 243.14 339.486 244.418 323.859 247.172C322 247.521 320.229 248.235 318.649 249.275C317.069 250.314 315.712 251.658 314.656 253.227C307.883 263.75 302.056 274.852 297.244 286.405C321.71 290.186 346.448 291.934 371.202 291.63C395.93 291.934 420.64 290.187 445.078 286.405ZM467.05 334.595C467.05 331.429 466.112 328.334 464.353 325.701C462.595 323.069 460.096 321.017 457.172 319.805C454.248 318.594 451.03 318.277 447.926 318.894C444.822 319.512 441.97 321.037 439.732 323.275C437.495 325.514 435.97 328.367 435.353 331.472C434.736 334.577 435.052 337.796 436.264 340.721C437.475 343.646 439.526 346.146 442.157 347.905C444.789 349.664 447.883 350.603 451.048 350.603C455.285 350.581 459.343 348.888 462.339 345.89C465.335 342.893 467.028 338.834 467.05 334.595ZM272.121 265.42H248.74C247.324 265.42 245.966 265.976 244.958 266.969C243.949 267.963 243.372 269.313 243.35 270.728V276.202C243.35 284.497 253.217 286.736 260.596 286.736L272.121 265.42ZM371.617 116.121C343.864 115.804 316.322 120.966 290.566 131.313C264.811 141.66 241.349 156.988 221.525 176.419C201.7 195.851 185.902 219.003 175.036 244.552C164.169 270.1 158.447 297.542 158.198 325.305C158.198 442.587 251.393 522.794 371.202 627.552C491.012 522.545 584.123 442.587 584.123 325.305C583.874 297.584 578.169 270.183 567.333 244.668C556.498 219.152 540.745 196.022 520.973 176.597C501.201 157.172 477.798 141.834 452.1 131.457C426.403 121.081 398.913 115.87 371.202 116.121H371.617ZM371.617 499.653C337.897 499.735 304.91 489.806 276.834 471.123C248.758 452.44 226.854 425.843 213.897 394.7C200.94 363.557 197.511 329.268 204.045 296.175C210.58 263.081 226.783 232.672 250.603 208.796C274.424 184.92 304.791 168.651 337.86 162.05C370.928 155.449 405.211 158.812 436.368 171.713C467.525 184.615 494.154 206.474 512.885 234.524C531.616 262.574 541.605 295.554 541.589 329.286C541.589 374.492 523.638 417.847 491.684 449.812C459.73 481.778 416.392 499.736 371.202 499.736L371.617 499.653Z" fill="#0082CD"/>
</g>
<defs>
<clipPath id="clip0_421_688">
<rect width="3174" height="745" fill="white"/>
</clipPath>
</defs>
</svg>
